<mxfile host="app.diagrams.net" modified="2022-03-04T06:31:48.555Z" agent="5.0 (Windows)" etag="kK6gxE-HUIg_L9Q4UwJi" version="16.6.5" type="github">
  <diagram id="Gvr9Fsqv_TF68EIdk_3u" name="Page-1">
    <mxGraphModel dx="726" dy="572" grid="1" gridSize="10" guides="1" tooltips="1" connect="1" arrows="1" fold="1" page="1" pageScale="1" pageWidth="827" pageHeight="1169" math="0" shadow="0">
      <root>
        <mxCell id="0" />
        <mxCell id="1" parent="0" />
        <mxCell id="tNOEt0NxGf2aSc_fpxIt-11" value="access-center" style="rounded=1;whiteSpace=wrap;html=1;labelPosition=center;verticalLabelPosition=top;align=center;verticalAlign=bottom;fillColor=#b0e3e6;strokeColor=#0e8088;" vertex="1" parent="1">
          <mxGeometry x="100" y="20" width="550" height="230" as="geometry" />
        </mxCell>
        <mxCell id="tNOEt0NxGf2aSc_fpxIt-12" value="access-center-api" style="rounded=1;whiteSpace=wrap;html=1;fillColor=#b1ddf0;strokeColor=#10739e;" vertex="1" parent="1">
          <mxGeometry x="155" y="150" width="120" height="60" as="geometry" />
        </mxCell>
        <mxCell id="tNOEt0NxGf2aSc_fpxIt-13" style="edgeStyle=orthogonalEdgeStyle;rounded=0;orthogonalLoop=1;jettySize=auto;html=1;exitX=0.5;exitY=1;exitDx=0;exitDy=0;" edge="1" parent="1" source="tNOEt0NxGf2aSc_fpxIt-15" target="tNOEt0NxGf2aSc_fpxIt-12">
          <mxGeometry relative="1" as="geometry" />
        </mxCell>
        <mxCell id="tNOEt0NxGf2aSc_fpxIt-14" style="rounded=0;orthogonalLoop=1;jettySize=auto;html=1;exitX=0.5;exitY=1;exitDx=0;exitDy=0;entryX=0.5;entryY=0;entryDx=0;entryDy=0;" edge="1" parent="1" source="tNOEt0NxGf2aSc_fpxIt-15" target="tNOEt0NxGf2aSc_fpxIt-16">
          <mxGeometry relative="1" as="geometry" />
        </mxCell>
        <mxCell id="tNOEt0NxGf2aSc_fpxIt-15" value="access-center-application" style="rounded=1;whiteSpace=wrap;html=1;fillColor=#b1ddf0;strokeColor=#10739e;" vertex="1" parent="1">
          <mxGeometry x="155" y="40" width="120" height="60" as="geometry" />
        </mxCell>
        <mxCell id="tNOEt0NxGf2aSc_fpxIt-16" value="access-center-persist" style="rounded=1;whiteSpace=wrap;html=1;fillColor=#b1ddf0;strokeColor=#10739e;" vertex="1" parent="1">
          <mxGeometry x="315" y="150" width="120" height="60" as="geometry" />
        </mxCell>
        <mxCell id="tNOEt0NxGf2aSc_fpxIt-17" style="edgeStyle=none;rounded=0;orthogonalLoop=1;jettySize=auto;html=1;exitX=0.5;exitY=1;exitDx=0;exitDy=0;entryX=0.5;entryY=0;entryDx=0;entryDy=0;" edge="1" parent="1" source="tNOEt0NxGf2aSc_fpxIt-18" target="tNOEt0NxGf2aSc_fpxIt-20">
          <mxGeometry relative="1" as="geometry" />
        </mxCell>
        <mxCell id="tNOEt0NxGf2aSc_fpxIt-18" value="access-center-sample" style="rounded=1;whiteSpace=wrap;html=1;fillColor=#b1ddf0;strokeColor=#10739e;" vertex="1" parent="1">
          <mxGeometry x="315" y="40" width="120" height="60" as="geometry" />
        </mxCell>
        <mxCell id="tNOEt0NxGf2aSc_fpxIt-19" style="edgeStyle=orthogonalEdgeStyle;rounded=0;orthogonalLoop=1;jettySize=auto;html=1;exitX=0.5;exitY=1;exitDx=0;exitDy=0;entryX=0.5;entryY=1;entryDx=0;entryDy=0;" edge="1" parent="1" source="tNOEt0NxGf2aSc_fpxIt-20" target="tNOEt0NxGf2aSc_fpxIt-12">
          <mxGeometry relative="1" as="geometry" />
        </mxCell>
        <mxCell id="tNOEt0NxGf2aSc_fpxIt-20" value="access-center-starter" style="rounded=1;whiteSpace=wrap;html=1;fillColor=#b1ddf0;strokeColor=#10739e;" vertex="1" parent="1">
          <mxGeometry x="475" y="150" width="120" height="60" as="geometry" />
        </mxCell>
        <mxCell id="tNOEt0NxGf2aSc_fpxIt-21" value="access-center-sql" style="rounded=1;whiteSpace=wrap;html=1;fillColor=#b1ddf0;strokeColor=#10739e;" vertex="1" parent="1">
          <mxGeometry x="475" y="40" width="120" height="60" as="geometry" />
        </mxCell>
      </root>
    </mxGraphModel>
  </diagram>
</mxfile>
